<?xml version="1.0" encoding="UTF-8" standalone="no"?>
<svg
   id="Layer_1"
   data-name="Layer 1"
   viewBox="0 0 13 24"
   version="1.1"
   sodipodi:docname="login_page_img.svg"
   xml:space="preserve"
   inkscape:version="1.4 (86a8ad7, 2024-10-11)"
   width="13"
   height="24"
   xmlns:inkscape="http://www.inkscape.org/namespaces/inkscape"
   xmlns:sodipodi="http://sodipodi.sourceforge.net/DTD/sodipodi-0.dtd"
   xmlns="http://www.w3.org/2000/svg"
   xmlns:svg="http://www.w3.org/2000/svg"><sodipodi:namedview
     id="namedview2"
     pagecolor="#ffffff"
     bordercolor="#000000"
     borderopacity="0.25"
     inkscape:showpageshadow="2"
     inkscape:pageopacity="0.0"
     inkscape:pagecheckerboard="0"
     inkscape:deskcolor="#d1d1d1"
     inkscape:zoom="24.161491"
     inkscape:cx="17.093316"
     inkscape:cy="6.4358611"
     inkscape:window-width="2560"
     inkscape:window-height="1369"
     inkscape:window-x="2552"
     inkscape:window-y="-8"
     inkscape:window-maximized="1"
     inkscape:current-layer="Layer_1"
     showguides="false" /><defs
     id="defs1"><style
       id="style1">
      .cls-1 {
        fill: #231f20;
      }
    </style><style
       id="style1-4">
      .cls-1 {
        fill: #fff;
      }
    </style></defs><path
     class="cls-1"
     d="M 7.22,7.73 2.93,0 H 0 L 6.73,12.08 0,24.15 H 2.93 L 7.22,16.42 C 7.95,15.14 8.93,13.35 9.52,12.1 8.93,10.85 7.95,9.02 7.22,7.73"
     id="path1"
     style="fill:#00494b;fill-opacity:1" /><path
     class="cls-1"
     d="M 11.18,9.22 16.32,0 h -2.93 l -3.67,6.61 0.62,1.12 c 0.26,0.46 0.54,0.95 0.83,1.49"
     id="path2"
     style="fill:#00494b;fill-opacity:1" /><g
     id="g2"
     transform="matrix(0.03645,0,0,0.03645,5.2590884,21.18601)"
     inkscape:transform-center-x="-1.8438431"
     inkscape:transform-center-y="0.36876864"><g
       id="g6"><path
         class="cls-1"
         d="m 193.89,24.78 -4.29,-7.73 h -2.93 l 6.73,12.08 -6.73,12.08 h 2.93 l 4.29,-7.73 c 0.73,-1.28 1.71,-3.07 2.3,-4.32 -0.59,-1.25 -1.57,-3.08 -2.3,-4.37"
         id="path1-8" /><path
         class="cls-1"
         d="m 197.85,26.27 5.14,-9.22 h -2.93 l -3.67,6.61 0.62,1.12 c 0.26,0.46 0.54,0.95 0.83,1.49"
         id="path2-8" /><polygon
         class="cls-1"
         points="19.64,38.71 28.81,38.71 28.81,41.2 16.97,41.2 16.97,17.05 19.64,17.05 "
         id="polygon2" /><path
         class="cls-1"
         d="m 51.82,38.42 c -2.13,2.05 -4.99,3.15 -8.32,3.15 -3.33,0 -6.08,-1.06 -8.17,-3.01 -2.38,-2.2 -3.78,-5.46 -3.78,-9.31 0,-3.63 1.28,-6.74 3.41,-8.94 2.13,-2.16 5.09,-3.45 8.54,-3.45 3.67,0 6.78,1.43 8.91,3.81 1.91,2.2 3.04,5.17 3.04,8.58 0,3.78 -1.36,6.96 -3.63,9.16 M 43.5,19.43 c -5.57,0 -9.05,3.85 -9.05,9.82 0,5.97 3.48,9.82 9.05,9.82 5.57,0 9.05,-3.85 9.05,-9.82 0,-5.61 -3.12,-9.82 -9.05,-9.82"
         id="path3" /><path
         class="cls-1"
         d="M 78.28,41.2 66.04,24.93 c -1.43,-1.91 -2.09,-2.82 -2.53,-3.78 h -0.07 c 0.04,0.81 0.07,1.65 0.07,2.93 V 41.2 H 60.83 V 17.05 h 2.79 l 11.73,15.69 c 1.65,2.2 2.31,3.12 2.75,4.07 h 0.07 C 78.13,36 78.1,35.16 78.1,33.88 V 17.06 h 2.68 v 24.15 h -2.49 z"
         id="path4" /><path
         class="cls-1"
         d="m 98.09,41.57 c -7.11,0 -12.02,-4.95 -12.02,-12.06 0,-7.55 5.06,-12.64 12.61,-12.64 2.93,0 5.5,0.84 6.71,1.47 v 2.9 c -1.5,-0.81 -4,-1.87 -6.85,-1.87 -6.08,0 -9.6,4 -9.6,9.79 0,6.23 3.78,9.93 9.79,9.93 2.24,0 3.7,-0.44 4.62,-0.99 v -8.54 h 2.68 v 10.12 c -1.32,0.73 -4.36,1.91 -7.92,1.91"
         id="path5" /><polygon
         class="cls-1"
         points="124.43,19.54 116.29,19.54 116.29,27.6 124.35,27.6 124.35,30.06 116.29,30.06 116.29,38.71 125.56,38.71 125.56,41.2 113.61,41.2 113.61,17.05 125.45,17.05 "
         id="polygon5" /><path
         class="cls-1"
         d="m 141.39,41.31 h -1.5 l -9.53,-24.26 h 2.86 l 6.19,16.09 c 0.44,1.17 0.92,2.49 1.36,3.74 h 0.07 c 0.4,-1.25 0.84,-2.42 1.39,-3.74 l 6.71,-16.09 h 2.79 z"
         id="path6" /><rect
         class="cls-1"
         x="157.11"
         y="17.049999"
         width="2.6800001"
         height="24.15"
         id="rect6" /><polygon
         class="cls-1"
         points="172.14,41.2 172.14,19.54 165.21,19.54 165.21,17.05 182.62,17.05 181.67,19.54 174.81,19.54 174.81,41.2 "
         id="polygon6" /></g><g
       id="g14"><path
         class="cls-1"
         d="m 75.94,54.05 h 1.75 c 0.83,0 1.42,0.13 1.88,0.39 0.81,0.44 1.29,1.25 1.29,2.35 0,0.99 -0.43,1.94 -1.51,2.42 -0.44,0.2 -1,0.31 -1.77,0.31 h -0.49 v 3.09 h -1.16 v -8.57 z m 1.72,4.53 c 0.52,0 0.9,-0.09 1.17,-0.23 0.56,-0.29 0.82,-0.82 0.82,-1.55 0,-0.68 -0.26,-1.22 -0.77,-1.52 -0.29,-0.17 -0.66,-0.27 -1.21,-0.27 h -0.58 v 3.58 h 0.57 z"
         id="path7" /><path
         class="cls-1"
         d="m 86.11,54.03 h 0.86 l 3.33,8.59 h -1.25 l -0.83,-2.25 h -3.33 l -0.82,2.25 h -1.22 z m 1.74,5.39 -0.81,-2.24 c -0.25,-0.73 -0.38,-1.12 -0.48,-1.43 h -0.03 c -0.09,0.31 -0.23,0.71 -0.49,1.44 l -0.81,2.22 h 2.61 z"
         id="path8" /><path
         class="cls-1"
         d="m 93.45,54.05 h 1.94 c 0.87,0 1.46,0.16 1.9,0.42 0.77,0.43 1.09,1.17 1.09,1.95 0,1.18 -0.65,1.92 -1.72,2.25 v 0.03 c 0.26,0.14 0.58,0.61 1.04,1.38 l 1.52,2.55 h -1.35 l -1.4,-2.38 c -0.4,-0.72 -0.73,-1.11 -0.97,-1.17 h -0.88 v 3.55 h -1.16 v -8.57 z m 1.92,4.07 c 0.46,0 0.79,-0.09 1.1,-0.27 0.43,-0.23 0.7,-0.69 0.7,-1.31 0,-0.49 -0.18,-0.91 -0.55,-1.18 -0.26,-0.2 -0.65,-0.35 -1.25,-0.35 h -0.78 v 3.12 h 0.77 z"
         id="path9" /><path
         class="cls-1"
         d="m 103.93,55.04 h -2.47 v -0.99 h 6.34 l -0.35,0.99 h -2.37 v 7.58 h -1.16 v -7.58 z"
         id="path10" /><path
         class="cls-1"
         d="m 117.14,62.62 -3.99,-5.25 c -0.48,-0.62 -0.83,-1.13 -1.13,-1.55 h -0.03 c 0.03,0.4 0.04,0.81 0.04,1.43 v 5.37 h -1.16 v -8.57 h 1.12 l 3.83,5.06 c 0.51,0.65 0.87,1.18 1.16,1.6 h 0.03 c -0.01,-0.46 -0.03,-0.88 -0.03,-1.48 v -5.17 h 1.16 v 8.57 h -1 z"
         id="path11" /><path
         class="cls-1"
         d="m 122.22,54.05 h 4.33 l -0.35,0.99 h -2.82 v 2.72 h 2.79 v 0.99 h -2.79 v 2.89 h 3.22 v 0.99 h -4.38 v -8.57 z"
         id="path12" /><path
         class="cls-1"
         d="m 130.12,54.05 h 1.94 c 0.87,0 1.46,0.16 1.9,0.42 0.77,0.43 1.09,1.17 1.09,1.95 0,1.18 -0.65,1.92 -1.72,2.25 v 0.03 c 0.26,0.14 0.58,0.61 1.04,1.38 l 1.52,2.55 h -1.35 l -1.4,-2.38 c -0.4,-0.72 -0.73,-1.11 -0.98,-1.17 h -0.88 v 3.55 h -1.16 v -8.57 z m 1.92,4.07 c 0.46,0 0.79,-0.09 1.11,-0.27 0.43,-0.23 0.7,-0.69 0.7,-1.31 0,-0.49 -0.18,-0.91 -0.55,-1.18 -0.26,-0.2 -0.65,-0.35 -1.25,-0.35 h -0.78 v 3.12 h 0.77 z"
         id="path13" /><path
         class="cls-1"
         d="m 139.29,61.18 c 0.44,0.3 1.09,0.58 1.87,0.58 0.86,0 1.64,-0.34 1.64,-1.26 0,-1.94 -3.74,-1.7 -3.74,-4.28 0,-1.23 0.95,-2.25 2.6,-2.25 0.81,0 1.52,0.21 1.94,0.42 v 1.05 c -0.58,-0.31 -1.25,-0.48 -1.9,-0.48 -0.71,0 -1.43,0.3 -1.43,1.14 0,1.82 3.76,1.62 3.76,4.3 0,1.46 -1.18,2.34 -2.85,2.34 -0.99,0 -1.81,-0.3 -2.37,-0.68 l 0.48,-0.9 z"
         id="path14" /></g></g></svg>
