<?xml version="1.0" encoding="UTF-8" standalone="no"?>
<!-- Generator: Adobe Illustrator 17.0.0, SVG Export Plug-In . SVG Version: 6.00 Build 0)  -->
<!DOCTYPE svg PUBLIC "-//W3C//DTD SVG 1.1//EN" "http://www.w3.org/Graphics/SVG/1.1/DTD/svg11.dtd">
<svg
   version="1.1"
   id="Layer_1"
   x="0px"
   y="0px"
   width="186.024"
   height="45.886002"
   viewBox="0 0 186.024 45.886003"
   enable-background="new 0 0 220 79.629"
   xml:space="preserve"
   xmlns="http://www.w3.org/2000/svg"
>
<defs id="defs45" />
<g
   id="g22"
   transform="translate(-16.968,-16.865)">
	<path
   fill="#8b6e4a"
   d="m 193.889,24.782 -4.288,-7.734 h -2.932 l 6.73,12.077 -6.73,12.077 h 2.932 l 4.288,-7.734 c 0.733,-1.283 1.713,-3.072 2.3,-4.319 -0.587,-1.245 -1.567,-3.084 -2.3,-4.367"
   id="path2" />
	<path
   fill="#012639"
   d="m 197.852,26.272 5.14,-9.223 h -2.932 l -3.666,6.61 0.623,1.124 c 0.264,0.461 0.543,0.952 0.835,1.489"
   id="path4" />
	<polygon
   fill="#012639"
   points="19.644,17.048 19.644,38.71 28.807,38.71 28.807,41.203 16.968,41.203 16.968,17.048 "
   id="polygon6" />
	<path
   fill="#012639"
   d="m 51.818,38.417 c -2.126,2.052 -4.985,3.152 -8.32,3.152 -3.262,0 -6.084,-1.063 -8.173,-3.006 -2.383,-2.199 -3.775,-5.461 -3.775,-9.309 0,-3.629 1.283,-6.744 3.409,-8.943 2.126,-2.163 5.094,-3.445 8.54,-3.445 3.665,0 6.781,1.43 8.907,3.812 1.906,2.2 3.042,5.168 3.042,8.577 -0.002,3.774 -1.357,6.963 -3.63,9.162 m -8.32,-18.986 c -5.571,0 -9.053,3.849 -9.053,9.823 0,5.974 3.482,9.823 9.053,9.823 5.571,0 9.053,-3.849 9.053,-9.823 0,-5.608 -3.116,-9.823 -9.053,-9.823"
   id="path8" />
	<path
   fill="#012639"
   d="M 78.284,41.203 66.042,24.929 C 64.613,23.023 63.953,22.107 63.513,21.154 H 63.44 c 0.036,0.806 0.073,1.649 0.073,2.932 V 41.203 H 60.837 V 17.048 h 2.786 l 11.729,15.687 c 1.649,2.199 2.309,3.116 2.749,4.069 h 0.074 C 78.138,35.997 78.101,35.155 78.101,33.871 V 17.048 h 2.676 v 24.154 h -2.493 z"
   id="path10" />
	<path
   fill="#012639"
   d="m 98.094,41.569 c -7.111,0 -12.022,-4.948 -12.022,-12.059 0,-7.55 5.058,-12.645 12.609,-12.645 2.932,0 5.498,0.843 6.708,1.466 v 2.896 c -1.503,-0.807 -3.995,-1.87 -6.854,-1.87 -6.084,0 -9.603,3.995 -9.603,9.786 0,6.231 3.775,9.933 9.786,9.933 2.236,0 3.702,-0.44 4.618,-0.99 v -8.54 h 2.676 v 10.116 c -1.321,0.734 -4.363,1.907 -7.918,1.907"
   id="path12" />
	<polygon
   fill="#012639"
   points="125.452,17.048 124.425,19.541 116.289,19.541 116.289,27.604 124.352,27.604 124.352,30.06 116.289,30.06 116.289,38.71 125.562,38.71 125.562,41.203 113.613,41.203 113.613,17.048 "
   id="polygon14" />
	<path
   fill="#012639"
   d="m 141.389,41.313 h -1.503 l -9.529,-24.264 h 2.859 l 6.194,16.09 c 0.44,1.173 0.917,2.492 1.357,3.739 h 0.073 c 0.403,-1.246 0.843,-2.419 1.393,-3.739 l 6.707,-16.09 h 2.786 z"
   id="path16" />
	<rect
   x="157.10899"
   y="17.048"
   fill="#012639"
   width="2.6760001"
   height="24.153999"
   id="rect18" />
	<polygon
   fill="#012639"
   points="174.814,41.202 172.138,41.202 172.138,19.541 165.211,19.541 165.211,17.049 182.621,17.049 181.668,19.541 174.814,19.541 "
   id="polygon20" />
</g>
<g
   id="g40"
   transform="translate(-16.968,-16.865)">
	<path
   fill="#012639"
   d="m 75.935,54.054 h 1.755 c 0.832,0 1.417,0.13 1.885,0.39 0.806,0.442 1.287,1.248 1.287,2.353 0,0.988 -0.429,1.937 -1.508,2.418 -0.442,0.195 -1.001,0.312 -1.769,0.312 h -0.494 v 3.094 h -1.156 z m 1.729,4.524 c 0.521,0 0.897,-0.091 1.17,-0.234 0.56,-0.286 0.819,-0.819 0.819,-1.547 0,-0.676 -0.26,-1.222 -0.768,-1.521 -0.285,-0.169 -0.662,-0.273 -1.209,-0.273 h -0.585 v 3.575 z"
   id="path24" />
	<path
   fill="#012639"
   d="m 86.109,54.028 h 0.857 l 3.328,8.593 h -1.248 l -0.832,-2.249 h -3.328 l -0.818,2.249 h -1.223 z m 1.742,5.395 -0.806,-2.236 c -0.247,-0.728 -0.377,-1.118 -0.48,-1.43 h -0.026 c -0.091,0.312 -0.234,0.715 -0.494,1.443 l -0.806,2.223 z"
   id="path26" />
	<path
   fill="#012639"
   d="m 93.45,54.054 h 1.937 c 0.871,0 1.456,0.156 1.898,0.416 0.767,0.429 1.092,1.17 1.092,1.95 0,1.183 -0.65,1.924 -1.716,2.249 v 0.026 c 0.26,0.143 0.585,0.611 1.04,1.378 l 1.521,2.548 H 97.87 l -1.404,-2.379 c -0.403,-0.715 -0.728,-1.105 -0.975,-1.17 h -0.885 v 3.549 H 93.45 Z m 1.924,4.069 c 0.455,0 0.793,-0.091 1.104,-0.273 0.43,-0.234 0.702,-0.689 0.702,-1.313 0,-0.494 -0.182,-0.91 -0.546,-1.183 -0.26,-0.195 -0.65,-0.351 -1.248,-0.351 h -0.78 v 3.12 z"
   id="path28" />
	<path
   fill="#012639"
   d="m 103.929,55.042 h -2.47 v -0.988 h 6.344 l -0.351,0.988 h -2.366 v 7.579 h -1.157 z"
   id="path30" />
	<path
   fill="#012639"
   d="m 117.14,62.621 -3.991,-5.252 c -0.481,-0.624 -0.832,-1.131 -1.131,-1.547 h -0.026 c 0.026,0.403 0.039,0.806 0.039,1.43 v 5.369 h -1.157 v -8.567 h 1.118 l 3.835,5.057 c 0.507,0.65 0.871,1.183 1.157,1.599 h 0.026 c -0.014,-0.455 -0.026,-0.884 -0.026,-1.482 v -5.174 h 1.157 v 8.567 z"
   id="path32" />
	<path
   fill="#012639"
   d="m 122.217,54.054 h 4.329 l -0.351,0.988 h -2.821 v 2.717 h 2.795 v 0.988 h -2.795 v 2.886 h 3.224 v 0.988 h -4.381 z"
   id="path34" />
	<path
   fill="#012639"
   d="m 130.118,54.054 h 1.938 c 0.871,0 1.456,0.156 1.897,0.416 0.768,0.429 1.092,1.17 1.092,1.95 0,1.183 -0.649,1.924 -1.716,2.249 v 0.026 c 0.26,0.143 0.585,0.611 1.04,1.378 l 1.521,2.548 h -1.353 l -1.403,-2.379 c -0.403,-0.715 -0.729,-1.105 -0.976,-1.17 h -0.884 v 3.549 h -1.157 v -8.567 z m 1.924,4.069 c 0.455,0 0.793,-0.091 1.105,-0.273 0.429,-0.234 0.702,-0.689 0.702,-1.313 0,-0.494 -0.183,-0.91 -0.546,-1.183 -0.261,-0.195 -0.65,-0.351 -1.248,-0.351 h -0.78 v 3.12 z"
   id="path36" />
	<path
   fill="#012639"
   d="m 139.292,61.178 c 0.442,0.299 1.093,0.585 1.872,0.585 0.858,0 1.639,-0.338 1.639,-1.261 0,-1.937 -3.744,-1.703 -3.744,-4.277 0,-1.235 0.948,-2.249 2.6,-2.249 0.807,0 1.521,0.208 1.938,0.416 v 1.053 c -0.585,-0.312 -1.248,-0.481 -1.898,-0.481 -0.715,0 -1.43,0.299 -1.43,1.144 0,1.82 3.757,1.625 3.757,4.303 0,1.456 -1.183,2.34 -2.847,2.34 -0.988,0 -1.808,-0.299 -2.366,-0.676 z"
   id="path38" />
</g>
</svg>
