<?xml version="1.0" encoding="UTF-8"?>
<svg id="Layer_1" data-name="Layer 1" xmlns="http://www.w3.org/2000/svg" viewBox="0 0 220 79.63">
  <defs>
    <style>
      .cls-1 {
        fill: #fff;
      }
    </style>
  </defs>
  <g>
    <path class="cls-1" d="M193.89,24.78l-4.29-7.73h-2.93l6.73,12.08-6.73,12.08h2.93l4.29-7.73c.73-1.28,1.71-3.07,2.3-4.32-.59-1.25-1.57-3.08-2.3-4.37"/>
    <path class="cls-1" d="M197.85,26.27l5.14-9.22h-2.93l-3.67,6.61.62,1.12c.26.46.54.95.83,1.49"/>
    <polygon class="cls-1" points="16.97 41.2 16.97 17.05 19.64 17.05 19.64 38.71 28.81 38.71 28.81 41.2 16.97 41.2"/>
    <path class="cls-1" d="M51.82,38.42c-2.13,2.05-4.99,3.15-8.32,3.15s-6.08-1.06-8.17-3.01c-2.38-2.2-3.78-5.46-3.78-9.31,0-3.63,1.28-6.74,3.41-8.94,2.13-2.16,5.09-3.45,8.54-3.45,3.67,0,6.78,1.43,8.91,3.81,1.91,2.2,3.04,5.17,3.04,8.58,0,3.78-1.36,6.96-3.63,9.16M43.5,19.43c-5.57,0-9.05,3.85-9.05,9.82s3.48,9.82,9.05,9.82,9.05-3.85,9.05-9.82c0-5.61-3.12-9.82-9.05-9.82"/>
    <path class="cls-1" d="M78.28,41.2l-12.24-16.27c-1.43-1.91-2.09-2.82-2.53-3.78h-.07c.04.81.07,1.65.07,2.93v17.12h-2.68v-24.15h2.79l11.73,15.69c1.65,2.2,2.31,3.12,2.75,4.07h.07c-.04-.81-.07-1.65-.07-2.93v-16.82h2.68v24.15h-2.49Z"/>
    <path class="cls-1" d="M98.09,41.57c-7.11,0-12.02-4.95-12.02-12.06,0-7.55,5.06-12.64,12.61-12.64,2.93,0,5.5.84,6.71,1.47v2.9c-1.5-.81-4-1.87-6.85-1.87-6.08,0-9.6,4-9.6,9.79,0,6.23,3.78,9.93,9.79,9.93,2.24,0,3.7-.44,4.62-.99v-8.54h2.68v10.12c-1.32.73-4.36,1.91-7.92,1.91"/>
    <polygon class="cls-1" points="113.61 41.2 113.61 17.05 125.45 17.05 124.43 19.54 116.29 19.54 116.29 27.6 124.35 27.6 124.35 30.06 116.29 30.06 116.29 38.71 125.56 38.71 125.56 41.2 113.61 41.2"/>
    <path class="cls-1" d="M141.39,41.31h-1.5l-9.53-24.26h2.86l6.19,16.09c.44,1.17.92,2.49,1.36,3.74h.07c.4-1.25.84-2.42,1.39-3.74l6.71-16.09h2.79l-10.34,24.26Z"/>
    <rect class="cls-1" x="157.11" y="17.05" width="2.68" height="24.15"/>
    <polygon class="cls-1" points="181.67 19.54 174.81 19.54 174.81 41.2 172.14 41.2 172.14 19.54 165.21 19.54 165.21 17.05 182.62 17.05 181.67 19.54"/>
  </g>
  <g>
    <path class="cls-1" d="M75.94,54.05h1.75c.83,0,1.42.13,1.88.39.81.44,1.29,1.25,1.29,2.35,0,.99-.43,1.94-1.51,2.42-.44.2-1,.31-1.77.31h-.49v3.09h-1.16v-8.57ZM77.66,58.58c.52,0,.9-.09,1.17-.23.56-.29.82-.82.82-1.55,0-.68-.26-1.22-.77-1.52-.29-.17-.66-.27-1.21-.27h-.58v3.58h.57Z"/>
    <path class="cls-1" d="M86.11,54.03h.86l3.33,8.59h-1.25l-.83-2.25h-3.33l-.82,2.25h-1.22l3.26-8.59ZM87.85,59.42l-.81-2.24c-.25-.73-.38-1.12-.48-1.43h-.03c-.09.31-.23.71-.49,1.44l-.81,2.22h2.61Z"/>
    <path class="cls-1" d="M93.45,54.05h1.94c.87,0,1.46.16,1.9.42.77.43,1.09,1.17,1.09,1.95,0,1.18-.65,1.92-1.72,2.25v.03c.26.14.58.61,1.04,1.38l1.52,2.55h-1.35l-1.4-2.38c-.4-.72-.73-1.11-.97-1.17h-.88v3.55h-1.16v-8.57ZM95.37,58.12c.46,0,.79-.09,1.1-.27.43-.23.7-.69.7-1.31,0-.49-.18-.91-.55-1.18-.26-.2-.65-.35-1.25-.35h-.78v3.12h.77Z"/>
    <path class="cls-1" d="M103.93,55.04h-2.47v-.99h6.34l-.35.99h-2.37v7.58h-1.16v-7.58Z"/>
    <path class="cls-1" d="M117.14,62.62l-3.99-5.25c-.48-.62-.83-1.13-1.13-1.55h-.03c.03.4.04.81.04,1.43v5.37h-1.16v-8.57h1.12l3.83,5.06c.51.65.87,1.18,1.16,1.6h.03c-.01-.46-.03-.88-.03-1.48v-5.17h1.16v8.57h-1Z"/>
    <path class="cls-1" d="M122.22,54.05h4.33l-.35.99h-2.82v2.72h2.79v.99h-2.79v2.89h3.22v.99h-4.38v-8.57Z"/>
    <path class="cls-1" d="M130.12,54.05h1.94c.87,0,1.46.16,1.9.42.77.43,1.09,1.17,1.09,1.95,0,1.18-.65,1.92-1.72,2.25v.03c.26.14.58.61,1.04,1.38l1.52,2.55h-1.35l-1.4-2.38c-.4-.72-.73-1.11-.98-1.17h-.88v3.55h-1.16v-8.57ZM132.04,58.12c.46,0,.79-.09,1.11-.27.43-.23.7-.69.7-1.31,0-.49-.18-.91-.55-1.18-.26-.2-.65-.35-1.25-.35h-.78v3.12h.77Z"/>
    <path class="cls-1" d="M139.29,61.18c.44.3,1.09.58,1.87.58.86,0,1.64-.34,1.64-1.26,0-1.94-3.74-1.7-3.74-4.28,0-1.23.95-2.25,2.6-2.25.81,0,1.52.21,1.94.42v1.05c-.58-.31-1.25-.48-1.9-.48-.71,0-1.43.3-1.43,1.14,0,1.82,3.76,1.62,3.76,4.3,0,1.46-1.18,2.34-2.85,2.34-.99,0-1.81-.3-2.37-.68l.48-.9Z"/>
  </g>
</svg>