<svg width="187" height="46" viewBox="0 0 187 46" fill="none" xmlns="http://www.w3.org/2000/svg">
<path d="M176.92 7.91994L172.63 0.189941H169.7L176.43 12.2699L169.7 24.3499H172.63L176.92 16.6199C177.65 15.3399 178.63 13.5499 179.22 12.2999C178.63 11.0499 177.65 9.21994 176.92 7.92994" fill="#7D7D7D"/>
<path d="M180.88 9.40994L186.02 0.189941H183.09L179.42 6.79994L180.04 7.91994C180.3 8.37994 180.58 8.86994 180.87 9.40994" fill="#7D7D7D"/>
<path d="M0 24.3399V0.189941H2.67V21.8499H11.84V24.3399H0Z" fill="#7D7D7D"/>
<path d="M34.8501 21.56C32.7201 23.61 29.8601 24.71 26.5301 24.71C23.2001 24.71 20.4501 23.65 18.3601 21.7C15.9801 19.5 14.5801 16.24 14.5801 12.39C14.5801 8.76 15.8601 5.65 17.9901 3.45C20.1201 1.29 23.0801 0 26.5301 0C30.2001 0 33.3101 1.43 35.4401 3.81C37.3501 6.01 38.4801 8.98 38.4801 12.39C38.4801 16.17 37.1201 19.35 34.8501 21.55M26.5301 2.57C20.9601 2.57 17.4801 6.42 17.4801 12.39C17.4801 18.36 20.9601 22.21 26.5301 22.21C32.1001 22.21 35.5801 18.36 35.5801 12.39C35.5801 6.78 32.4601 2.57 26.5301 2.57Z" fill="#7D7D7D"/>
<path d="M61.3099 24.3399L49.0699 8.06994C47.6399 6.15994 46.9799 5.24994 46.5399 4.28994H46.4699C46.5099 5.09994 46.5399 5.93994 46.5399 7.21994V24.3399H43.8599V0.189941H46.6499L58.3799 15.8799C60.0299 18.0799 60.6899 18.9999 61.1299 19.9499H61.1999C61.1599 19.1399 61.1299 18.2999 61.1299 17.0199V0.199942H63.8099V24.3499H61.3199L61.3099 24.3399Z" fill="#7D7D7D"/>
<path d="M81.1201 24.71C74.0101 24.71 69.1001 19.76 69.1001 12.65C69.1001 5.10001 74.1601 0.0100098 81.7101 0.0100098C84.6401 0.0100098 87.2101 0.850009 88.4201 1.48001V4.38001C86.9201 3.57001 84.4201 2.51001 81.5701 2.51001C75.4901 2.51001 71.9701 6.51001 71.9701 12.3C71.9701 18.53 75.7501 22.23 81.7601 22.23C84.0001 22.23 85.4601 21.79 86.3801 21.24V12.7H89.0601V22.82C87.7401 23.55 84.7001 24.73 81.1401 24.73" fill="#7D7D7D"/>
<path d="M96.6401 24.3399V0.189941H108.48L107.46 2.67994H99.3201V10.7399H107.38V13.1999H99.3201V21.8499H108.59V24.3399H96.6401Z" fill="#7D7D7D"/>
<path d="M124.42 24.4499H122.92L113.39 0.189941H116.25L122.44 16.2799C122.88 17.4499 123.36 18.7699 123.8 20.0199H123.87C124.27 18.7699 124.71 17.5999 125.26 16.2799L131.97 0.189941H134.76L124.42 24.4499Z" fill="#7D7D7D"/>
<path d="M142.82 0.189941H140.14V24.3399H142.82V0.189941Z" fill="#7D7D7D"/>
<path d="M164.7 2.67994H157.84V24.3399H155.17V2.67994H148.24V0.189941H165.65L164.7 2.67994Z" fill="#7D7D7D"/>
<path d="M58.97 37.1904H60.72C61.55 37.1904 62.14 37.3204 62.6 37.5804C63.41 38.0204 63.89 38.8304 63.89 39.9304C63.89 40.9204 63.46 41.8704 62.38 42.3504C61.94 42.5504 61.38 42.6604 60.61 42.6604H60.12V45.7504H58.96V37.1804L58.97 37.1904ZM60.69 41.7204C61.21 41.7204 61.59 41.6304 61.86 41.4904C62.42 41.2004 62.68 40.6704 62.68 39.9404C62.68 39.2604 62.42 38.7204 61.91 38.4204C61.62 38.2504 61.25 38.1504 60.7 38.1504H60.12V41.7304H60.69V41.7204Z" fill="#7D7D7D"/>
<path d="M69.1399 37.1704H69.9999L73.3299 45.7604H72.0799L71.2499 43.5104H67.9199L67.0999 45.7604H65.8799L69.1399 37.1704ZM70.8799 42.5604L70.0699 40.3204C69.8199 39.5904 69.6899 39.2004 69.5899 38.8904H69.5599C69.4699 39.2004 69.3299 39.6004 69.0699 40.3304L68.2599 42.5504H70.8699L70.8799 42.5604Z" fill="#7D7D7D"/>
<path d="M76.48 37.1904H78.42C79.29 37.1904 79.88 37.3504 80.32 37.6104C81.09 38.0404 81.41 38.7804 81.41 39.5604C81.41 40.7404 80.76 41.4804 79.69 41.8104V41.8404C79.95 41.9804 80.27 42.4504 80.73 43.2204L82.25 45.7704H80.9L79.5 43.3904C79.1 42.6704 78.77 42.2804 78.53 42.2204H77.65V45.7704H76.49V37.2004L76.48 37.1904ZM78.4 41.2604C78.86 41.2604 79.19 41.1704 79.5 40.9904C79.93 40.7604 80.2 40.3004 80.2 39.6804C80.2 39.1904 80.02 38.7704 79.65 38.5004C79.39 38.3004 79 38.1504 78.4 38.1504H77.62V41.2704H78.39L78.4 41.2604Z" fill="#7D7D7D"/>
<path d="M86.9597 38.1804H84.4897V37.1904H90.8298L90.4797 38.1804H88.1097V45.7604H86.9497V38.1804H86.9597Z" fill="#7D7D7D"/>
<path d="M100.17 45.7604L96.1799 40.5104C95.6999 39.8904 95.3499 39.3804 95.0499 38.9604H95.0199C95.0499 39.3604 95.0599 39.7704 95.0599 40.3904V45.7604H93.8999V37.1904H95.0199L98.8499 42.2504C99.3599 42.9004 99.7199 43.4304 100.01 43.8504H100.04C100.03 43.3904 100.01 42.9704 100.01 42.3704V37.2004H101.17V45.7704H100.17V45.7604Z" fill="#7D7D7D"/>
<path d="M105.25 37.1904H109.58L109.23 38.1804H106.41V40.9004H109.2V41.8904H106.41V44.7804H109.63V45.7704H105.25V37.2004V37.1904Z" fill="#7D7D7D"/>
<path d="M113.15 37.1904H115.09C115.96 37.1904 116.55 37.3504 116.99 37.6104C117.76 38.0404 118.08 38.7804 118.08 39.5604C118.08 40.7404 117.43 41.4804 116.36 41.8104V41.8404C116.62 41.9804 116.94 42.4504 117.4 43.2204L118.92 45.7704H117.57L116.17 43.3904C115.77 42.6704 115.44 42.2804 115.19 42.2204H114.31V45.7704H113.15V37.2004V37.1904ZM115.07 41.2604C115.53 41.2604 115.86 41.1704 116.18 40.9904C116.61 40.7604 116.88 40.3004 116.88 39.6804C116.88 39.1904 116.7 38.7704 116.33 38.5004C116.07 38.3004 115.68 38.1504 115.08 38.1504H114.3V41.2704H115.07V41.2604Z" fill="#7D7D7D"/>
<path d="M122.32 44.3204C122.76 44.6204 123.41 44.9003 124.19 44.9003C125.05 44.9003 125.83 44.5604 125.83 43.6404C125.83 41.7004 122.09 41.9404 122.09 39.3604C122.09 38.1304 123.04 37.1104 124.69 37.1104C125.5 37.1104 126.21 37.3203 126.63 37.5303V38.5803C126.05 38.2703 125.38 38.1003 124.73 38.1003C124.02 38.1003 123.3 38.4003 123.3 39.2403C123.3 41.0603 127.06 40.8604 127.06 43.5404C127.06 45.0004 125.88 45.8804 124.21 45.8804C123.22 45.8804 122.4 45.5804 121.84 45.2004L122.32 44.3004V44.3204Z" fill="#7D7D7D"/>
</svg>
